<?xml version="1.0" encoding="UTF-8" standalone="no"?>
<!-- Generator: Adobe Illustrator 16.0.0, SVG Export Plug-In . SVG Version: 6.00 Build 0)  -->

<svg
   version="1.1"
   id="Capa_1"
   x="0px"
   y="0px"
   width="284.92899"
   height="169.92899"
   viewBox="0 0 284.929 169.929"
   xml:space="preserve"
   sodipodi:docname="arrow-up.svg"
   inkscape:version="1.2.2 (1:1.2.2+202305151915+b0a8486541)"
   xmlns:inkscape="http://www.inkscape.org/namespaces/inkscape"
   xmlns:sodipodi="http://sodipodi.sourceforge.net/DTD/sodipodi-0.dtd"
   xmlns="http://www.w3.org/2000/svg"
   xmlns:svg="http://www.w3.org/2000/svg"
   xmlns:rdf="http://www.w3.org/1999/02/22-rdf-syntax-ns#"
   xmlns:cc="http://creativecommons.org/ns#"
   xmlns:dc="http://purl.org/dc/elements/1.1/"><metadata
   id="metadata45"><rdf:RDF><cc:Work
       rdf:about=""><dc:format>image/svg+xml</dc:format><dc:type
         rdf:resource="http://purl.org/dc/dcmitype/StillImage" /><dc:title /></cc:Work></rdf:RDF></metadata><defs
   id="defs43">
	

		
		
	</defs><sodipodi:namedview
   pagecolor="#ffffff"
   bordercolor="#666666"
   borderopacity="1"
   objecttolerance="10"
   gridtolerance="10"
   guidetolerance="10"
   inkscape:pageopacity="0"
   inkscape:pageshadow="2"
   inkscape:window-width="1848"
   inkscape:window-height="1016"
   id="namedview41"
   showgrid="false"
   inkscape:zoom="4.6854398"
   inkscape:cx="128.163"
   inkscape:cy="89.532684"
   inkscape:window-x="72"
   inkscape:window-y="27"
   inkscape:window-maximized="1"
   inkscape:current-layer="Capa_1"
   inkscape:showpageshadow="2"
   inkscape:pagecheckerboard="0"
   inkscape:deskcolor="#d1d1d1" />
<path
   d="m 17.128,165.73976 c 1.903,1.902 4.093,2.85401 6.567,2.85401 2.474,0 4.664,-0.952 6.567,-2.85401 L 142.466,53.53419 254.674,165.73976 c 1.902,1.902 4.093,2.85401 6.563,2.85401 2.478,0 4.668,-0.952 6.57,-2.85401 l 14.274,-14.27699 c 1.902,-1.902 2.847,-4.093 2.847,-6.563 0,-2.475 -0.951,-4.665 -2.847,-6.567 L 149.028,5.287245 c -1.901,-1.9059992 -4.088,-2.8529978 -6.562,-2.8529978 -2.474,0 -4.665,0.9499986 -6.567,2.8529978 L 2.8559999,138.33176 c -1.90599999,1.903 -2.855999993218283,4.09 -2.855999993218283,6.57 0,2.468 0.953000003218283,4.658 2.855999993218283,6.561 z"
   id="path2"
   inkscape:connector-curvature="0"
   style="fill:#ffffff;fill-opacity:1" />
<g
   id="g10"
   transform="translate(0,-114.99959)"
   style="fill:#ffffff;fill-opacity:1">
</g>
<g
   id="g12"
   transform="translate(0,-114.99959)"
   style="fill:#ffffff;fill-opacity:1">
</g>
<g
   id="g14"
   transform="translate(0,-114.99959)"
   style="fill:#ffffff;fill-opacity:1">
</g>
<g
   id="g16"
   transform="translate(0,-114.99959)"
   style="fill:#ffffff;fill-opacity:1">
</g>
<g
   id="g18"
   transform="translate(0,-114.99959)"
   style="fill:#ffffff;fill-opacity:1">
</g>
<g
   id="g20"
   transform="translate(0,-114.99959)"
   style="fill:#ffffff;fill-opacity:1">
</g>
<g
   id="g22"
   transform="translate(0,-114.99959)"
   style="fill:#ffffff;fill-opacity:1">
</g>
<g
   id="g24"
   transform="translate(0,-114.99959)"
   style="fill:#ffffff;fill-opacity:1">
</g>
<g
   id="g26"
   transform="translate(0,-114.99959)"
   style="fill:#ffffff;fill-opacity:1">
</g>
<g
   id="g28"
   transform="translate(0,-114.99959)"
   style="fill:#ffffff;fill-opacity:1">
</g>
<g
   id="g30"
   transform="translate(0,-114.99959)"
   style="fill:#ffffff;fill-opacity:1">
</g>
<g
   id="g32"
   transform="translate(0,-114.99959)"
   style="fill:#ffffff;fill-opacity:1">
</g>
<g
   id="g34"
   transform="translate(0,-114.99959)"
   style="fill:#ffffff;fill-opacity:1">
</g>
<g
   id="g36"
   transform="translate(0,-114.99959)"
   style="fill:#ffffff;fill-opacity:1">
</g>
<g
   id="g38"
   transform="translate(0,-114.99959)"
   style="fill:#ffffff;fill-opacity:1">
</g>
</svg>
